<svg width="46" height="46" viewBox="0 0 46 46" fill="none" xmlns="http://www.w3.org/2000/svg">
<rect width="46" height="46" rx="23" fill="#2B3749" fill-opacity="0.6"/>
<path d="M18.9994 18.0004C18.9994 17.4479 19.4473 17 19.9998 17C20.552 17.0003 21.0001 17.4481 21.0001 18.0004V30.3397C21.0001 30.8082 21.0018 31.2743 20.9503 31.6303C20.9036 31.9528 20.7551 32.621 20.0652 32.8994L20.0662 32.9004C19.3885 33.1752 18.8178 32.8146 18.5559 32.622C18.4104 32.5149 18.2538 32.3797 18.0919 32.2292L17.5927 31.7466L15.3009 29.5025C14.9062 29.116 14.899 28.4826 15.2852 28.0878C15.6717 27.693 16.305 27.6866 16.6998 28.0731L18.9926 30.3173L18.9994 30.3231V18.0004ZM19.6901 31.9733L19.7419 32.1012L19.3179 31.0441L19.6901 31.9733Z" fill="#CBD5E1"/>
<path d="M25 27.9996V15.6604C25 15.1919 24.9974 14.7259 25.0489 14.3698C25.0955 14.0474 25.2444 13.3793 25.934 13.1007L25.933 13.0998C26.6111 12.8246 27.1826 13.1856 27.4444 13.3782C27.7355 13.5923 28.0672 13.9211 28.4067 14.2536L27.0067 15.6829C27.0047 15.6809 27.0028 15.679 27.0008 15.677V27.9996C27.0008 28.5521 26.5529 29 26.0004 29C25.4479 29 25 28.5521 25 27.9996ZM30.6996 16.4977C31.0944 16.8842 31.1008 17.5175 30.7143 17.9123C30.3278 18.3071 29.6944 18.3135 29.2996 17.927L27.0067 15.6829L28.4067 14.2536L30.6996 16.4977Z" fill="#CBD5E1"/>
</svg>
