<svg width="21" height="21" viewBox="0 0 21 21" fill="none" xmlns="http://www.w3.org/2000/svg">
<g id="Devices">
<g id="Group">
<path id="Vector (Stroke)" fill-rule="evenodd" clip-rule="evenodd" d="M11.3177 7.10485C11.6337 6.78885 12.0623 6.61133 12.5091 6.61133H17.5641C18.011 6.61133 18.4396 6.78885 18.7555 7.10485C19.0715 7.42084 19.2491 7.84943 19.2491 8.29631V16.7212C19.2491 17.1681 19.0715 17.5967 18.7555 17.9127C18.4396 18.2287 18.011 18.4062 17.5641 18.4062H12.5091C12.0623 18.4062 11.6337 18.2287 11.3177 17.9127C11.0017 17.5967 10.8242 17.1681 10.8242 16.7212V8.29631C10.8242 7.84942 11.0017 7.42084 11.3177 7.10485ZM17.5641 8.29631H12.5091L12.5091 16.7212H17.5641L17.5641 8.29631Z" fill="white"/>
<path id="Vector (Stroke)_2" fill-rule="evenodd" clip-rule="evenodd" d="M2.89281 3.73473C3.20881 3.41874 3.63739 3.24121 4.08427 3.24121H15.0367C15.4835 3.24121 15.9121 3.41874 16.2281 3.73473C16.5441 4.05073 16.7216 4.47931 16.7216 4.92619C16.7216 5.39149 16.3444 5.76868 15.8791 5.76868C15.4139 5.76868 15.0367 5.39149 15.0367 4.92619H4.08427V15.0361H9.13922C9.60451 15.0361 9.98171 15.4133 9.98171 15.8786C9.98171 16.3439 9.60451 16.7211 9.13922 16.7211H4.08427C3.63739 16.7211 3.20881 16.5435 2.89281 16.2275C2.57682 15.9116 2.39929 15.483 2.39929 15.0361V4.92619C2.39929 4.47931 2.57682 4.05073 2.89281 3.73473ZM13.3517 8.29616C13.3517 7.83086 13.7289 7.45367 14.1942 7.45367H15.8791C16.3444 7.45367 16.7216 7.83086 16.7216 8.29616C16.7216 8.76145 16.3444 9.13865 15.8791 9.13865H14.1942C13.7289 9.13865 13.3517 8.76145 13.3517 8.29616Z" fill="white"/>
</g>
</g>
</svg>
