<svg width="46" height="77" viewBox="0 0 46 77" fill="none" xmlns="http://www.w3.org/2000/svg">
<path id="Ellipse 570" d="M0 5.06C0 2.26544 2.27222 -0.0287854 5.04989 0.277995C12.3615 1.08553 19.3991 3.63831 25.5562 7.7524C33.1209 12.8069 39.0168 19.9912 42.4985 28.3966C45.9801 36.802 46.891 46.051 45.1161 54.9742C43.6714 62.237 40.5002 69.0184 35.9012 74.7595C34.154 76.9406 30.925 76.925 28.949 74.949C26.9729 72.9729 27.0067 69.7871 28.6853 67.5529C31.9047 63.2682 34.1367 58.2982 35.1906 52.9998C36.575 46.0398 35.8645 38.8255 33.1488 32.2693C30.4331 25.7131 25.8343 20.1094 19.9339 16.1669C15.4421 13.1656 10.3496 11.2295 5.04337 10.4762C2.27655 10.0834 0 7.85456 0 5.06Z" fill="#32E4D2"/>
</svg>
