<svg width="28" height="15" viewBox="0 0 28 15" fill="none" xmlns="http://www.w3.org/2000/svg">
<g clip-path="url(#clip0_3265_1161)">
<path d="M15.3337 0.333313V15.0003H3.66669C2.00994 15.0003 0.666863 13.657 0.666687 12.0003V3.33331C0.666688 1.67646 2.00983 0.333313 3.66669 0.333313H15.3337Z" fill="white"/>
<rect x="0.666687" y="0.333313" width="22.6667" height="14.6667" rx="3" fill="white" fill-opacity="0.5"/>
<path d="M14.5134 11C14.0655 11 13.6813 10.865 13.361 10.5951C13.0433 10.3252 12.7985 9.94094 12.6266 9.44222C12.4548 8.94351 12.3688 8.35238 12.3688 7.66885V7.66005C12.3688 6.97651 12.4548 6.38685 12.6266 5.89107C12.7985 5.39235 13.0433 5.00805 13.361 4.73815C13.6813 4.46826 14.0655 4.33331 14.5134 4.33331C14.9613 4.33331 15.3454 4.46826 15.6657 4.73815C15.986 5.00805 16.2321 5.39235 16.404 5.89107C16.5759 6.38685 16.6618 6.97651 16.6618 7.66005V7.66885C16.6618 8.35238 16.5759 8.94351 16.404 9.44222C16.2321 9.94094 15.986 10.3252 15.6657 10.5951C15.3454 10.865 14.9613 11 14.5134 11ZM14.5134 10.0803C14.753 10.0803 14.9574 9.98348 15.1266 9.78986C15.2959 9.59624 15.4248 9.32048 15.5134 8.96258C15.6045 8.60174 15.6501 8.1705 15.6501 7.66885V7.66005C15.6501 7.1584 15.6045 6.72862 15.5134 6.37072C15.4248 6.00988 15.2959 5.73412 15.1266 5.54343C14.9574 5.34981 14.753 5.253 14.5134 5.253C14.2738 5.253 14.0694 5.34981 13.9001 5.54343C13.7334 5.73412 13.6045 6.00988 13.5134 6.37072C13.4248 6.72862 13.3806 7.1584 13.3806 7.66005V7.66885C13.3806 8.1705 13.4248 8.60174 13.5134 8.96258C13.6045 9.32048 13.7334 9.59624 13.9001 9.78986C14.0694 9.98348 14.2738 10.0803 14.5134 10.0803Z" fill="black"/>
<path d="M9.58337 11C9.2839 11 8.99874 10.9384 8.72791 10.8152C8.45707 10.689 8.21619 10.4954 8.00525 10.2343C7.79692 9.97028 7.63285 9.63438 7.51306 9.2266C7.39327 8.81589 7.33337 8.32305 7.33337 7.74805V7.73925C7.33337 7.02638 7.42452 6.41619 7.60681 5.90867C7.7891 5.39822 8.04952 5.00805 8.38806 4.73815C8.72921 4.46826 9.13546 4.33331 9.60681 4.33331C9.95056 4.33331 10.2618 4.40519 10.5404 4.54893C10.8191 4.68975 11.0495 4.88483 11.2318 5.13419C11.4141 5.38355 11.5352 5.67105 11.5951 5.99668L11.6029 6.04508H10.6146L10.599 6.00108C10.5495 5.85146 10.4779 5.72239 10.3842 5.61384C10.293 5.50236 10.181 5.41729 10.0482 5.35862C9.91801 5.29701 9.77087 5.26621 9.60681 5.26621C9.30733 5.26621 9.06254 5.36595 8.87244 5.56544C8.68494 5.76199 8.54431 6.02602 8.45056 6.35752C8.35942 6.68902 8.30603 7.05865 8.29041 7.46643C8.2878 7.5075 8.2865 7.55003 8.2865 7.59404C8.2865 7.63511 8.2865 7.67765 8.2865 7.72165L8.46228 8.78216C8.46228 9.02272 8.51176 9.24127 8.61072 9.43782C8.70968 9.63438 8.84379 9.78986 9.01306 9.90427C9.18233 10.0187 9.36983 10.0759 9.57556 10.0759C9.7839 10.0759 9.9727 10.0201 10.142 9.90867C10.3112 9.79426 10.4454 9.64171 10.5443 9.45102C10.6433 9.25741 10.6927 9.04325 10.6927 8.80856V8.79976C10.6927 8.55334 10.6446 8.33625 10.5482 8.14849C10.4545 7.95781 10.3243 7.80819 10.1576 7.69965C9.99093 7.59111 9.80082 7.53683 9.58728 7.53683C9.37634 7.53683 9.18494 7.58964 9.01306 7.69525C8.84379 7.80086 8.70968 7.94754 8.61072 8.13529C8.51176 8.32305 8.46228 8.53573 8.46228 8.77336V8.78216H8.22791V7.61164H8.36462C8.43494 7.44442 8.5352 7.28894 8.66541 7.14519C8.79822 7.00145 8.96228 6.88557 9.15759 6.79756C9.35291 6.70955 9.57817 6.66555 9.83337 6.66555C10.1954 6.66555 10.5144 6.75649 10.7904 6.93837C11.0691 7.12026 11.2865 7.36962 11.4427 7.68645C11.599 8.00035 11.6771 8.35825 11.6771 8.76016V8.76896C11.6771 9.2002 11.5873 9.58304 11.4076 9.91747C11.2279 10.2519 10.9805 10.5159 10.6654 10.7096C10.3529 10.9032 9.99223 11 9.58337 11Z" fill="black"/>
<path opacity="0.5" d="M24.6667 9.66665L24.6667 5.66665C24.6667 4.93027 25.2636 4.33331 26 4.33331C26.7364 4.33331 27.3334 4.93027 27.3334 5.66665L27.3334 9.66665C27.3334 10.403 26.7364 11 26 11C25.2636 11 24.6667 10.403 24.6667 9.66665Z" fill="white"/>
</g>
<defs>
<clipPath id="clip0_3265_1161">
<rect width="26.6667" height="14.6667" fill="white" transform="translate(0.666687 0.333313)"/>
</clipPath>
</defs>
</svg>
