<svg width="17" height="17" viewBox="0 0 17 17" fill="none" xmlns="http://www.w3.org/2000/svg">
<g id="Glyphs / Home">
<g id="Group">
<g id="Vector (Stroke)">
<path fill-rule="evenodd" clip-rule="evenodd" d="M8.29485 1.27707C8.53559 1.08982 8.8727 1.08982 9.11344 1.27707L15.1134 5.94373C15.2758 6.07004 15.3708 6.26424 15.3708 6.46997V13.8033C15.3708 14.3337 15.1601 14.8424 14.785 15.2175C14.41 15.5926 13.9012 15.8033 13.3708 15.8033H4.03748C3.50704 15.8033 2.99833 15.5926 2.62326 15.2175C2.24819 14.8424 2.03748 14.3337 2.03748 13.8033V6.46997C2.03748 6.26424 2.13246 6.07004 2.29485 5.94373L8.29485 1.27707ZM3.37081 6.79602V13.8033C3.37081 13.9801 3.44105 14.1497 3.56607 14.2747C3.6911 14.3997 3.86066 14.47 4.03748 14.47H13.3708C13.5476 14.47 13.7172 14.3997 13.8422 14.2747C13.9672 14.1497 14.0375 13.9801 14.0375 13.8033V6.79602L8.70414 2.64788L3.37081 6.79602Z" fill="white"/>
<path d="M3.37081 13.8033V6.79602L8.70414 2.64788L14.0375 6.79602V13.8033C14.0375 13.9801 13.9672 14.1497 13.8422 14.2747C13.7172 14.3997 13.5476 14.47 13.3708 14.47H4.03748C3.86066 14.47 3.6911 14.3997 3.56607 14.2747C3.44105 14.1497 3.37081 13.9801 3.37081 13.8033Z" fill="white"/>
</g>
<path id="Vector (Stroke)_2" fill-rule="evenodd" clip-rule="evenodd" d="M6.03748 9.46993C6.03748 9.10174 6.33595 8.80326 6.70414 8.80326H10.7041C11.0723 8.80326 11.3708 9.10174 11.3708 9.46993V16.1366C11.3708 16.5048 11.0723 16.8033 10.7041 16.8033C10.336 16.8033 10.0375 16.5048 10.0375 16.1366V10.1366H7.37081V16.1366C7.37081 16.5048 7.07233 16.8033 6.70414 16.8033C6.33595 16.8033 6.03748 16.5048 6.03748 16.1366V9.46993Z" fill="#2D2D2D"/>
</g>
</g>
</svg>
