<svg width="17" height="17" viewBox="0 0 17 17" fill="none" xmlns="http://www.w3.org/2000/svg">
<g id="Glyphs / Home">
<g id="Group">
<g id="Vector (Stroke)">
<path fill-rule="evenodd" clip-rule="evenodd" d="M8.29485 1.27715C8.53559 1.08991 8.8727 1.08991 9.11344 1.27715L15.1134 5.94382C15.2758 6.07012 15.3708 6.26433 15.3708 6.47005V13.8034C15.3708 14.3338 15.1601 14.8425 14.785 15.2176C14.41 15.5927 13.9012 15.8034 13.3708 15.8034H4.03748C3.50704 15.8034 2.99833 15.5927 2.62326 15.2176C2.24819 14.8425 2.03748 14.3338 2.03748 13.8034V6.47005C2.03748 6.26433 2.13246 6.07012 2.29485 5.94382L8.29485 1.27715ZM3.37081 6.79611V13.8034C3.37081 13.9802 3.44105 14.1498 3.56607 14.2748C3.6911 14.3998 3.86066 14.4701 4.03748 14.4701H13.3708C13.5476 14.4701 13.7172 14.3998 13.8422 14.2748C13.9672 14.1498 14.0375 13.9802 14.0375 13.8034V6.79611L8.70414 2.64796L3.37081 6.79611Z" fill="url(#paint0_linear_59_310)"/>
<path d="M3.37081 13.8034V6.79611L8.70414 2.64796L14.0375 6.79611V13.8034C14.0375 13.9802 13.9672 14.1498 13.8422 14.2748C13.7172 14.3998 13.5476 14.4701 13.3708 14.4701H4.03748C3.86066 14.4701 3.6911 14.3998 3.56607 14.2748C3.44105 14.1498 3.37081 13.9802 3.37081 13.8034Z" fill="url(#paint1_linear_59_310)"/>
</g>
<path id="Vector (Stroke)_2" fill-rule="evenodd" clip-rule="evenodd" d="M6.03748 9.46989C6.03748 9.1017 6.33595 8.80322 6.70414 8.80322H10.7041C11.0723 8.80322 11.3708 9.1017 11.3708 9.46989V16.1366C11.3708 16.5047 11.0723 16.8032 10.7041 16.8032C10.336 16.8032 10.0375 16.5047 10.0375 16.1366V10.1366H7.37081V16.1366C7.37081 16.5047 7.07233 16.8032 6.70414 16.8032C6.33595 16.8032 6.03748 16.5047 6.03748 16.1366V9.46989Z" fill="#F5E5E5"/>
</g>
</g>
<defs>
<linearGradient id="paint0_linear_59_310" x1="8.70414" y1="15.8034" x2="8.70414" y2="1.13672" gradientUnits="userSpaceOnUse">
<stop stop-color="#F96F5D"/>
<stop offset="0.693459" stop-color="#6671E6"/>
</linearGradient>
<linearGradient id="paint1_linear_59_310" x1="8.70414" y1="15.8034" x2="8.70414" y2="1.13672" gradientUnits="userSpaceOnUse">
<stop stop-color="#F96F5D"/>
<stop offset="0.693459" stop-color="#6671E6"/>
</linearGradient>
</defs>
</svg>
