<svg width="20" height="20" viewBox="0 0 20 20" fill="none" xmlns="http://www.w3.org/2000/svg">
<g id="Hotspot">
<g id="Vector">
<mask id="path-1-inside-1_26_523" fill="white">
<path d="M4.03929 12.6551H4.61C4.56821 12.2929 4.53357 11.8962 4.575 11.5337H4.1225C2.40964 11.5337 1.19071 10.3294 1.19071 8.60222C1.19071 6.88901 2.40964 5.67722 4.12286 5.67722H10.2925C12.0054 5.67722 13.2243 6.88901 13.2243 8.60222C13.2243 10.3294 12.0054 11.534 10.2921 11.534H7.84821C7.75071 11.8054 7.78536 12.3347 8.00821 12.6554H10.3761C12.7368 12.6554 14.415 10.9976 14.415 8.60222C14.415 6.21365 12.7364 4.55615 10.3757 4.55615H4.03929C1.67857 4.55615 0 6.21365 0 8.60222C0 10.9979 1.67857 12.6551 4.03929 12.6551ZM9.62393 15.8933H15.9611C18.3214 15.8933 20 14.2362 20 11.8404C20 9.45187 18.3214 7.79437 15.9607 7.79437H15.39C15.4318 8.14972 15.4668 8.5533 15.425 8.9158H15.8775C17.5904 8.9158 18.8093 10.1204 18.8093 11.8404C18.8093 13.5604 17.5904 14.7722 15.8771 14.7722H9.70786C7.99464 14.7722 6.77607 13.5604 6.77607 11.8401C6.77607 10.1204 7.99464 8.91544 9.70786 8.91544H12.1521C12.2429 8.64401 12.2079 8.11472 11.9921 7.79437H9.62429C7.26357 7.79437 5.585 9.45151 5.585 11.8404C5.585 14.2358 7.26321 15.8933 9.62393 15.8933Z"/>
</mask>
<path d="M4.03929 12.6551H4.61C4.56821 12.2929 4.53357 11.8962 4.575 11.5337H4.1225C2.40964 11.5337 1.19071 10.3294 1.19071 8.60222C1.19071 6.88901 2.40964 5.67722 4.12286 5.67722H10.2925C12.0054 5.67722 13.2243 6.88901 13.2243 8.60222C13.2243 10.3294 12.0054 11.534 10.2921 11.534H7.84821C7.75071 11.8054 7.78536 12.3347 8.00821 12.6554H10.3761C12.7368 12.6554 14.415 10.9976 14.415 8.60222C14.415 6.21365 12.7364 4.55615 10.3757 4.55615H4.03929C1.67857 4.55615 0 6.21365 0 8.60222C0 10.9979 1.67857 12.6551 4.03929 12.6551ZM9.62393 15.8933H15.9611C18.3214 15.8933 20 14.2362 20 11.8404C20 9.45187 18.3214 7.79437 15.9607 7.79437H15.39C15.4318 8.14972 15.4668 8.5533 15.425 8.9158H15.8775C17.5904 8.9158 18.8093 10.1204 18.8093 11.8404C18.8093 13.5604 17.5904 14.7722 15.8771 14.7722H9.70786C7.99464 14.7722 6.77607 13.5604 6.77607 11.8401C6.77607 10.1204 7.99464 8.91544 9.70786 8.91544H12.1521C12.2429 8.64401 12.2079 8.11472 11.9921 7.79437H9.62429C7.26357 7.79437 5.585 9.45151 5.585 11.8404C5.585 14.2358 7.26321 15.8933 9.62393 15.8933Z" fill="white"/>
<path d="M4.61 12.6551V13.9051H6.01252L5.85176 12.5118L4.61 12.6551ZM4.575 11.5337L5.81692 11.6756L5.97599 10.2837H4.575V11.5337ZM7.84821 11.534V10.284H6.96903L6.67181 11.1114L7.84821 11.534ZM8.00821 12.6554L6.98171 13.3687L7.35465 13.9054H8.00821V12.6554ZM4.03929 4.55615V5.80615V4.55615ZM15.39 7.79437V6.54437H13.9844L14.1486 7.94035L15.39 7.79437ZM15.425 8.9158L14.1832 8.77266L14.0226 10.1658H15.425V8.9158ZM12.1521 8.91544V10.1654H13.0523L13.3377 9.31166L12.1521 8.91544ZM11.9921 7.79437L13.029 7.0962L12.6574 6.54437H11.9921V7.79437ZM4.03929 13.9051H4.61V11.4051H4.03929V13.9051ZM5.85176 12.5118C5.81048 12.1541 5.79324 11.8827 5.81692 11.6756L3.33308 11.3917C3.2739 11.9096 3.32594 12.4318 3.36824 12.7984L5.85176 12.5118ZM4.575 10.2837H4.1225V12.7837H4.575V10.2837ZM4.1225 10.2837C3.56634 10.2837 3.16038 10.093 2.89657 9.83013C2.63342 9.56794 2.44071 9.16328 2.44071 8.60222H-0.0592857C-0.0592857 9.76831 0.357472 10.8294 1.132 11.6011C1.90587 12.3722 2.9658 12.7837 4.1225 12.7837V10.2837ZM2.44071 8.60222C2.44071 8.05048 2.63189 7.64657 2.89669 7.38267C3.16188 7.11839 3.5686 6.92722 4.12286 6.92722V4.42722C2.9639 4.42722 1.90455 4.84195 1.13197 5.61186C0.359006 6.38217 -0.0592857 7.44076 -0.0592857 8.60222H2.44071ZM4.12286 6.92722H10.2925V4.42722H4.12286V6.92722ZM10.2925 6.92722C10.8465 6.92722 11.2531 7.11835 11.5183 7.38264C11.7831 7.64654 11.9743 8.05047 11.9743 8.60222H14.4743C14.4743 7.44076 14.056 6.38219 13.2831 5.6119C12.5106 4.84199 11.4513 4.42722 10.2925 4.42722V6.92722ZM11.9743 8.60222C11.9743 9.16329 11.7816 9.56806 11.5183 9.83035C11.2545 10.0933 10.8484 10.284 10.2921 10.284V12.784C11.4491 12.784 12.5091 12.3724 13.283 11.6012C14.0575 10.8294 14.4743 9.7683 14.4743 8.60222H11.9743ZM10.2921 10.284H7.84821V12.784H10.2921V10.284ZM6.67181 11.1114C6.53713 11.4864 6.52808 11.8953 6.56668 12.2226C6.60637 12.5593 6.71724 12.9881 6.98171 13.3687L9.03472 11.9421C9.04822 11.9616 9.05561 11.9758 9.05881 11.9824C9.06205 11.9891 9.06237 11.9909 9.06107 11.987C9.0598 11.9832 9.05765 11.9759 9.05535 11.9654C9.05306 11.9549 9.05101 11.9428 9.04948 11.9299C9.04795 11.9169 9.04713 11.9046 9.04688 11.8938C9.04662 11.883 9.04698 11.8756 9.04722 11.8724C9.04733 11.8709 9.04736 11.8711 9.04713 11.8728C9.04691 11.8745 9.04635 11.8784 9.04519 11.8845C9.04404 11.8904 9.04212 11.8993 9.03902 11.9109C9.03594 11.9224 9.03135 11.9379 9.02462 11.9566L6.67181 11.1114ZM8.00821 13.9054H10.3761V11.4054H8.00821V13.9054ZM10.3761 13.9054C11.8564 13.9054 13.1939 13.3807 14.1642 12.4114C15.135 11.4417 15.665 10.1 15.665 8.60222H13.165C13.165 9.49978 12.8559 10.1848 12.3974 10.6427C11.9384 11.1013 11.2564 11.4054 10.3761 11.4054V13.9054ZM15.665 8.60222C15.665 7.10679 15.1342 5.76691 14.1634 4.79849C13.1932 3.8307 11.8559 3.30615 10.3757 3.30615V5.80615C11.2562 5.80615 11.9386 6.11035 12.3978 6.56846C12.8565 7.02593 13.165 7.70909 13.165 8.60222H15.665ZM10.3757 3.30615H4.03929V5.80615H10.3757V3.30615ZM4.03929 3.30615C2.55906 3.30615 1.22181 3.8307 0.251598 4.79849C-0.719249 5.76691 -1.25 7.10679 -1.25 8.60222H1.25C1.25 7.70909 1.55853 7.02593 2.01715 6.56846C2.47641 6.11035 3.15879 5.80615 4.03929 5.80615V3.30615ZM-1.25 8.60222C-1.25 10.1003 -0.719909 11.4419 0.2511 12.4115C1.22151 13.3806 2.55909 13.9051 4.03929 13.9051V11.4051C3.15877 11.4051 2.4767 11.101 2.01765 10.6426C1.55919 10.1847 1.25 9.49991 1.25 8.60222H-1.25ZM9.62393 17.1433H15.9611V14.6433H9.62393V17.1433ZM15.9611 17.1433C17.4411 17.1433 18.7786 16.6188 19.749 15.6497C20.7199 14.6801 21.25 13.3385 21.25 11.8404H18.75C18.75 12.7381 18.4408 13.423 17.9824 13.8808C17.5233 14.3392 16.8414 14.6433 15.9611 14.6433V17.1433ZM21.25 11.8404C21.25 10.345 20.7192 9.00512 19.7484 8.0367C18.7782 7.06892 17.4409 6.54437 15.9607 6.54437V9.04437C16.8412 9.04437 17.5236 9.34857 17.9828 9.80668C18.4415 10.2641 18.75 10.9473 18.75 11.8404H21.25ZM15.9607 6.54437H15.39V9.04437H15.9607V6.54437ZM14.1486 7.94035C14.1895 8.28849 14.207 8.56643 14.1832 8.77266L16.6668 9.05894C16.7266 8.54016 16.6741 8.01096 16.6314 7.64839L14.1486 7.94035ZM15.425 10.1658H15.8775V7.6658H15.425V10.1658ZM15.8775 10.1658C16.4336 10.1658 16.84 10.3565 17.1041 10.6193C17.3675 10.8813 17.5593 11.2843 17.5593 11.8404H20.0593C20.0593 10.6766 19.6416 9.61725 18.8673 8.84695C18.0937 8.07737 17.0342 7.6658 15.8775 7.6658V10.1658ZM17.5593 11.8404C17.5593 12.3969 17.3672 12.8025 17.1026 13.0666C16.8376 13.3311 16.4313 13.5222 15.8771 13.5222V16.0222C17.0362 16.0222 18.0959 15.6074 18.8688 14.836C19.6419 14.0643 20.0593 13.004 20.0593 11.8404H17.5593ZM15.8771 13.5222H9.70786V16.0222H15.8771V13.5222ZM9.70786 13.5222C9.15368 13.5222 8.74755 13.3311 8.48271 13.0667C8.21817 12.8026 8.02607 12.3969 8.02607 11.8401H5.52607C5.52607 13.0036 5.94326 14.064 6.71631 14.8359C7.48906 15.6074 8.54881 16.0222 9.70786 16.0222V13.5222ZM8.02607 11.8401C8.02607 11.2841 8.2178 10.881 8.48118 10.619C8.74524 10.3562 9.15161 10.1654 9.70786 10.1654V7.66544C8.55089 7.66544 7.49136 8.07714 6.71784 8.8468C5.94362 9.61715 5.52607 10.6764 5.52607 11.8401H8.02607ZM9.70786 10.1654H12.1521V7.66544H9.70786V10.1654ZM13.3377 9.31166C13.4597 8.94665 13.4664 8.54826 13.4284 8.22657C13.3895 7.89733 13.2834 7.47398 13.029 7.0962L10.9553 8.49254C10.9424 8.47339 10.9356 8.45987 10.933 8.45434C10.9304 8.44869 10.9306 8.44813 10.9323 8.45344C10.934 8.45863 10.9365 8.46737 10.9391 8.47951C10.9417 8.49157 10.944 8.50526 10.9457 8.51993C10.9474 8.53459 10.9484 8.54865 10.9488 8.5613C10.9491 8.57405 10.9488 8.58341 10.9484 8.58875C10.9481 8.59441 10.9479 8.59261 10.9495 8.58365C10.9503 8.57894 10.9518 8.5713 10.9544 8.56102C10.9569 8.55082 10.9608 8.53668 10.9666 8.51922L13.3377 9.31166ZM11.9921 6.54437H9.62429V9.04437H11.9921V6.54437ZM9.62429 6.54437C8.14414 6.54437 6.80687 7.06878 5.83663 8.03654C4.86573 9.00495 4.335 10.3449 4.335 11.8404H6.835C6.835 10.9471 7.14356 10.264 7.60212 9.80657C8.06134 9.34853 8.74372 9.04437 9.62429 9.04437V6.54437ZM4.335 11.8404C4.335 13.3382 4.86497 14.6798 5.83584 15.6495C6.80614 16.6187 8.14365 17.1433 9.62393 17.1433V14.6433C8.7435 14.6433 8.06154 14.3392 7.60255 13.8807C7.14414 13.4228 6.835 12.738 6.835 11.8404H4.335Z" fill="white" mask="url(#path-1-inside-1_26_523)"/>
</g>
</g>
</svg>
