<svg width="24" height="24" viewBox="0 0 24 24" fill="none" xmlns="http://www.w3.org/2000/svg">
<g id="Symbol">
<rect width="24" height="24" rx="12" fill="white" fill-opacity="0.6" style="mix-blend-mode:luminosity"/>
<path id="Wifi" fill-rule="evenodd" clip-rule="evenodd" d="M12.3427 9.78128C13.835 9.78135 15.2702 10.3346 16.3517 11.3267C16.4332 11.4033 16.5633 11.4023 16.6435 11.3245L17.422 10.5664C17.4626 10.527 17.4853 10.4735 17.4849 10.4179C17.4846 10.3623 17.4613 10.3091 17.4202 10.2701C14.5816 7.64531 10.1034 7.64531 7.26478 10.2701C7.22367 10.3091 7.20034 10.3623 7.19996 10.4179C7.19958 10.4735 7.22218 10.527 7.26276 10.5664L8.04148 11.3245C8.12164 11.4024 8.25192 11.4034 8.33331 11.3267C9.41495 10.3345 10.8503 9.78128 12.3427 9.78128ZM12.3407 12.3134C13.1551 12.3134 13.9404 12.6204 14.5441 13.1749C14.6258 13.2536 14.7544 13.2519 14.834 13.1711L15.6063 12.3795C15.647 12.338 15.6696 12.2816 15.669 12.2231C15.6684 12.1646 15.6447 12.1087 15.6032 12.0681C13.7649 10.3335 10.9181 10.3335 9.07978 12.0681C9.03826 12.1087 9.01456 12.1646 9.01402 12.2232C9.01347 12.2817 9.03612 12.338 9.07688 12.3795L9.84903 13.1711C9.92862 13.2519 10.0572 13.2536 10.1389 13.1749C10.7422 12.6208 11.5269 12.3138 12.3407 12.3134ZM13.8554 13.9896C13.8565 14.0528 13.8343 14.1137 13.7939 14.158L12.4879 15.6309C12.4496 15.6741 12.3974 15.6985 12.343 15.6985C12.2885 15.6985 12.2363 15.6741 12.198 15.6309L10.8918 14.158C10.8515 14.1137 10.8293 14.0527 10.8305 13.9895C10.8317 13.9263 10.8561 13.8665 10.8981 13.8241C11.7322 13.0358 12.9538 13.0358 13.7878 13.8241C13.8298 13.8665 13.8542 13.9264 13.8554 13.9896Z" fill="#39A45D"/>
</g>
</svg>
