<svg width="40" height="40" viewBox="0 0 40 40" fill="none" xmlns="http://www.w3.org/2000/svg">
<g id="Symbol">
<rect width="40" height="40" rx="20" fill="#111111" fill-opacity="0.6" style="mix-blend-mode:luminosity"/>
<rect width="40" height="40" rx="20" fill="#777777" style="mix-blend-mode:color-dodge"/>
<rect width="40" height="40" rx="20" fill="#222222" style="mix-blend-mode:plus-lighter"/>
<path id="Wifi" fill-rule="evenodd" clip-rule="evenodd" d="M20.5713 16.3021C23.0584 16.3022 25.4504 17.2243 27.2529 18.8778C27.3887 19.0054 27.6056 19.0038 27.7393 18.8742L29.0368 17.6107C29.1045 17.5449 29.1422 17.4559 29.1417 17.3632C29.1411 17.2705 29.1023 17.1818 29.0338 17.1169C24.3028 12.7421 16.8391 12.7421 12.1081 17.1169C12.0395 17.1818 12.0006 17.2704 12 17.3631C11.9994 17.4558 12.037 17.5449 12.1047 17.6107L13.4026 18.8742C13.5362 19.004 13.7533 19.0056 13.8889 18.8778C15.6917 17.2242 18.0839 16.3021 20.5713 16.3021ZM20.5679 20.5224C21.9253 20.5223 23.2341 21.034 24.2403 21.9582C24.3763 22.0893 24.5907 22.0865 24.7234 21.9517L26.0106 20.6324C26.0784 20.5632 26.1161 20.4694 26.1151 20.3718C26.1141 20.2743 26.0746 20.1812 26.0054 20.1134C22.9416 17.2225 18.1969 17.2225 15.133 20.1134C15.0638 20.1812 15.0244 20.2743 15.0234 20.3719C15.0225 20.4695 15.0603 20.5633 15.1282 20.6324L16.4151 21.9517C16.5478 22.0865 16.7621 22.0893 16.8982 21.9582C17.9037 21.0346 19.2115 20.5229 20.5679 20.5224ZM23.0924 23.3159C23.0943 23.4213 23.0572 23.5228 22.9899 23.5967L20.8133 26.0514C20.7495 26.1235 20.6625 26.1641 20.5717 26.1641C20.4809 26.1641 20.3939 26.1235 20.3301 26.0514L18.1531 23.5967C18.0859 23.5228 18.0489 23.4212 18.0509 23.3158C18.0528 23.2105 18.0937 23.1107 18.1636 23.0401C19.5537 21.7262 21.5897 21.7262 22.9798 23.0401C23.0497 23.1108 23.0904 23.2106 23.0924 23.3159Z" fill="white"/>
</g>
</svg>
