<svg width="16" height="16" viewBox="0 0 16 16" fill="none" xmlns="http://www.w3.org/2000/svg">
<path d="M6.12031 6.29189C6.51008 6.68186 6.50964 7.31422 6.11935 7.70472C5.75316 8.07091 5.17402 8.09426 4.7817 7.77425L4.7061 7.7061L4.63754 7.63009C4.31756 7.23777 4.34089 6.65862 4.70707 6.29244L4.78276 6.22419C5.17552 5.90364 5.75463 5.9262 6.12031 6.29189Z" fill="white"/>
<path d="M8.03832 13.6238C8.01535 13.6467 8.01532 13.6843 8.03826 13.7073L8.05768 13.7201C8.07887 13.7285 8.10417 13.724 8.12135 13.7068C8.13836 13.6896 8.14266 13.6646 8.1342 13.6435L8.1214 13.6241L8.10157 13.6109C8.08754 13.6053 8.07179 13.6053 8.05776 13.6109L8.03832 13.6238ZM8.78694 12.9586C9.1767 13.3485 9.17627 13.9809 8.78597 14.3714C8.41979 14.7376 7.84064 14.7609 7.44832 14.4409L7.37273 14.3728L7.30416 14.2968C6.98418 13.9045 7.00752 13.3253 7.3737 12.9591L7.44939 12.8909C7.84214 12.5703 8.42126 12.5929 8.78694 12.9586Z" fill="white"/>
<path d="M7.42624 1.61405C7.52219 1.4225 7.71814 1.30124 7.9324 1.30124C8.14664 1.30131 8.34268 1.42247 8.43856 1.61405L9.1505 3.03724C9.23811 3.21256 9.22787 3.42082 9.12495 3.5876C9.02192 3.75423 8.84022 3.85667 8.64434 3.85691H8.49795V8.83566L9.85623 8.25354C9.85623 8.21502 9.8561 6.09461 9.85623 5.78419C9.85636 5.47175 10.11 5.57009 10.4225 5.57012C10.7349 5.57021 10.9886 5.47175 10.9887 5.78419C10.9888 6.09539 10.9887 8.59029 10.9887 8.62642C10.9887 8.8527 10.8534 9.05711 10.6455 9.1464L8.49726 10.0669L8.49795 13.465C8.49791 13.7775 8.24426 14.0312 7.93171 14.0312C7.61935 14.0311 7.36632 13.778 7.36616 13.4657V12.202L5.2186 11.2822C5.01181 11.1936 4.87698 10.99 4.87541 10.765C4.87515 10.7243 4.85617 7.69534 4.854 7.38484C4.85205 7.0772 5.39941 7.14113 5.41609 7.14316C5.41609 7.14316 5.98374 7.06452 5.98648 7.37656C5.98865 7.68852 6.00437 10.3766 6.00443 10.3873L7.36616 10.9701L7.36547 3.85691H7.22046C7.02449 3.85682 6.84227 3.75493 6.73916 3.58829C6.63611 3.42146 6.62661 3.21265 6.7143 3.03724L7.42624 1.61405Z" fill="white"/>
<path d="M9.49624 5.73412C9.52344 5.46723 9.74916 5.25861 10.0232 5.25843L10.6882 5.25838L10.7419 5.26083C11.0088 5.28765 11.2171 5.51309 11.2169 5.78709L11.2165 6.45174C11.2163 6.74388 10.9792 6.98088 10.687 6.98117L10.022 6.98204C9.72984 6.98224 9.49317 6.74544 9.49327 6.45333L9.49373 5.78786L9.49624 5.73412Z" fill="white"/>
</svg>
