<svg width="15" height="13" viewBox="0 0 15 13" fill="none" xmlns="http://www.w3.org/2000/svg">
<g id="Group">
<path id="Vector" d="M6.29901 10.4954C6.29901 10.8491 6.43949 11.1882 6.68954 11.4383C6.93958 11.6883 7.27872 11.8288 7.63234 11.8288C7.98597 11.8288 8.32511 11.6883 8.57515 11.4383C8.8252 11.1882 8.96568 10.8491 8.96568 10.4954C8.96568 10.1418 8.8252 9.80268 8.57515 9.55263C8.32511 9.30259 7.98597 9.16211 7.63234 9.16211C7.27872 9.16211 6.93958 9.30259 6.68954 9.55263C6.43949 9.80268 6.29901 10.1418 6.29901 10.4954Z" fill="white" stroke="white" stroke-width="1.33333" stroke-linecap="round" stroke-linejoin="round"/>
<path id="Vector (Stroke)" fill-rule="evenodd" clip-rule="evenodd" d="M7.71794 1.33333C5.53949 1.33333 3.43069 2.10087 1.76189 3.50114C1.47984 3.73781 1.05934 3.70101 0.822671 3.41896C0.586004 3.13691 0.622796 2.71641 0.904847 2.47974C2.81377 0.877979 5.22602 0 7.71794 0C10.2099 0 12.6221 0.877979 14.531 2.47974C14.8131 2.71641 14.8499 3.13691 14.6132 3.41896C14.3765 3.70101 13.956 3.73781 13.674 3.50114C12.0052 2.10087 9.89638 1.33333 7.71794 1.33333Z" fill="white"/>
<path id="Vector (Stroke)_2" fill-rule="evenodd" clip-rule="evenodd" d="M3.57133 5.48942C4.71728 4.52733 6.16806 4 7.66666 4C9.16527 4 10.616 4.52733 11.762 5.48942C12.044 5.72616 12.0807 6.14667 11.8439 6.42866C11.6072 6.71065 11.1867 6.74733 10.9047 6.51058C9.99951 5.75066 8.85248 5.33333 7.66666 5.33333C6.48084 5.33333 5.33381 5.75066 4.42866 6.51058C4.14667 6.74733 3.72616 6.71065 3.48941 6.42866C3.25267 6.14667 3.28935 5.72616 3.57133 5.48942Z" fill="white"/>
</g>
</svg>
