<svg width="14" height="11" viewBox="0 0 14 11" fill="none" xmlns="http://www.w3.org/2000/svg">
<g id="Group">
<path id="Vector (Stroke)" fill-rule="evenodd" clip-rule="evenodd" d="M7.00001 2.00008C4.94038 2.00008 2.94659 2.76762 1.36881 4.16789C1.10215 4.40455 0.704578 4.36776 0.48082 4.08571C0.257061 3.80366 0.291846 3.38316 0.558514 3.14649C2.36333 1.54473 4.64401 0.666748 7.00001 0.666748C9.35602 0.666748 11.6367 1.54473 13.4415 3.14649C13.7082 3.38316 13.743 3.80366 13.5192 4.08571C13.2954 4.36776 12.8979 4.40455 12.6312 4.16789C11.0534 2.76762 9.05964 2.00008 7.00001 2.00008Z" fill="white"/>
<path id="Vector (Stroke)_2" fill-rule="evenodd" clip-rule="evenodd" d="M3.22504 6.15617C4.30848 5.19408 5.68014 4.66675 7.097 4.66675C8.51387 4.66675 9.88552 5.19408 10.969 6.15617C11.2356 6.39291 11.2703 6.81342 11.0464 7.09541C10.8226 7.3774 10.425 7.41407 10.1584 7.17733C9.30262 6.4174 8.21815 6.00008 7.097 6.00008C5.97586 6.00008 4.89139 6.4174 4.0356 7.17733C3.769 7.41407 3.37142 7.3774 3.14759 7.09541C2.92376 6.81342 2.95843 6.39291 3.22504 6.15617Z" fill="white"/>
<path id="Ellipse 79" d="M5.88317 9.57917C5.76168 9.45067 5.76019 9.24724 5.89845 9.13698C6.2789 8.83357 6.74461 8.66675 7.22658 8.66675C7.70856 8.66675 8.17427 8.83357 8.55472 9.13698C8.69298 9.24724 8.69149 9.45067 8.57 9.57917L7.4688 10.7439C7.33728 10.883 7.11589 10.883 6.98437 10.7439L5.88317 9.57917Z" fill="white"/>
</g>
</svg>
