<svg width="18" height="13" viewBox="0 0 18 13" fill="none" xmlns="http://www.w3.org/2000/svg">
<path id="Wifi" fill-rule="evenodd" clip-rule="evenodd" d="M9.2754 2.77219C11.7625 2.77229 14.1545 3.69438 15.957 5.34786C16.0928 5.47551 16.3097 5.4739 16.4434 5.34425L17.7409 4.08078C17.8086 4.01502 17.8463 3.92594 17.8458 3.83326C17.8452 3.74058 17.8064 3.65194 17.7379 3.58695C13.0069 -0.787771 5.54317 -0.787771 0.812158 3.58695C0.743626 3.65189 0.704741 3.74051 0.704109 3.83319C0.703477 3.92587 0.74115 4.01497 0.80879 4.08078L2.10666 5.34425C2.24025 5.4741 2.45738 5.47571 2.59303 5.34786C4.39577 3.69427 6.78805 2.77218 9.2754 2.77219ZM9.27205 6.99247C10.6294 6.99238 11.9382 7.50412 12.9444 8.42825C13.0805 8.5594 13.2948 8.55656 13.4275 8.42184L14.7148 7.10253C14.7825 7.03333 14.8202 6.93945 14.8192 6.8419C14.8182 6.74435 14.7787 6.65127 14.7095 6.58348C11.6457 3.69263 6.90098 3.69263 3.83715 6.58348C3.76794 6.65127 3.72846 6.7444 3.72755 6.84198C3.72664 6.93956 3.76438 7.03343 3.83232 7.10253L5.11923 8.42184C5.25188 8.55656 5.46625 8.5594 5.60233 8.42825C6.60778 7.50473 7.91563 6.99304 9.27205 6.99247ZM11.7965 9.78602C11.7984 9.89137 11.7613 9.99294 11.694 10.0667L9.51737 12.5215C9.45356 12.5936 9.36657 12.6342 9.2758 12.6342C9.18503 12.6342 9.09804 12.5936 9.03423 12.5215L6.85721 10.0667C6.78995 9.99288 6.75296 9.89128 6.75495 9.78593C6.75695 9.68058 6.79775 9.58082 6.86774 9.5102C8.25784 8.19631 10.2938 8.19631 11.6839 9.5102C11.7538 9.58087 11.7945 9.68067 11.7965 9.78602Z" fill="#AFAFAF"/>
</svg>
